<?xml version="1.0" encoding="utf-8"?>
<!DOCTYPE svg PUBLIC "-//W3C//DTD SVG 20010904//EN" "http://www.w3.org/TR/2001/REC-SVG-20010904/DTD/svg10.dtd">
<svg version="1.0" xmlns="http://www.w3.org/2000/svg" width="574px" height="252px" viewBox="0 0 574 252" preserveAspectRatio="xMidYMid meet">
 <g fill="#000000">
  <path d="M112.3 251 c-53.3 -5.6 -96.7 -43.8 -109.3 -96 -3.2 -13.1 -3.9 -36.8 -1.6 -50.6 10.6 -62.2 65.8 -106.8 128.8 -104.1 24.3 1 45.8 7.9 65.7 21.1 7.4 5 18.5 14.3 18.9 16 0.1 0.6 -2.7 2 -6.4 3 -29.7 8.5 -53.3 33 -61.6 64.1 -1.7 6.3 -2.2 10.9 -2.2 21.5 -0.1 11.9 0.3 14.6 2.7 23 4.9 16.6 15.7 33.8 27.2 43.3 l4.6 3.9 4.5 -3.8 c19 -15.5 31.4 -44.2 31.4 -72.7 0 -14.8 5.1 -35 12.7 -50.2 21.4 -42.6 64.8 -69.4 112.3 -69.5 16.3 0 35.6 3.7 48.4 9.4 l5.5 2.4 7.2 -2.9 c8.7 -3.6 19.6 -6.4 30.8 -8 10.4 -1.5 31.7 -0.6 42.1 1.6 46.8 10.3 83.5 45.2 95.5 91 8 30.3 4.6 61.9 -9.8 89.9 -17.5 34.2 -48.5 57.6 -87 65.7 -11.8 2.5 -32.8 3 -44.3 1.1 -23.8 -4 -45.5 -14.3 -65.1 -31 -2.9 -2.4 -5.3 -4.7 -5.3 -5.1 0 -0.4 3.3 -1.8 7.3 -3 36.4 -11.7 60.2 -41.6 64.1 -80.6 1.8 -17.9 -7.2 -44.5 -20.4 -60.7 -4.9 -6 -13.4 -13.8 -15 -13.8 -1.5 0 -11 9.2 -15.8 15.3 -6.7 8.6 -11.5 17.7 -15.1 29 -2.5 7.9 -3.2 12.4 -4.1 25.4 -1.3 19.1 -2.2 24.8 -6.1 37.8 -19.5 63.6 -86.9 101 -151.7 84 -5.1 -1.4 -12.2 -3.6 -15.6 -5 l-6.3 -2.5 -8.9 3.4 c-18.6 7 -38.5 9.6 -58.1 7.6z m28.1 -38 c0.5 -0.5 -0.9 -2.9 -3.7 -6 -21.4 -23.8 -33 -62.5 -28.7 -95.6 3.2 -25 16.2 -53.7 31.7 -70.6 l2.5 -2.6 -6.8 -0.7 c-42 -4.5 -82.6 22.3 -94.7 62.5 -5.7 19 -5.6 33.8 0.3 52.4 10.5 32.4 38.5 56.2 72.8 61.6 6.7 1 25.2 0.4 26.6 -1z m103.6 1 c16.8 -2.7 32.7 -9.7 45.1 -19.8 20.2 -16.4 32.8 -43.2 32.9 -69.7 0.1 -28.2 11.1 -57.7 29.8 -80.2 l5.1 -6.1 -7.6 -0.8 c-35.5 -3.3 -69.8 15.1 -87 46.6 -6.9 12.8 -11.3 30.8 -11.3 46.8 0 25.2 -11.3 54.6 -29.3 76.2 -2.5 3 -4.4 5.7 -4.1 5.9 1.8 1.9 17.5 2.5 26.4 1.1z m215 0 c41.5 -6.6 72 -37.7 77.2 -78.7 2.1 -16.3 -1.7 -35.3 -10.2 -51 -17.2 -32 -51.3 -50.2 -87.3 -46.8 l-7.7 0.7 4.5 5 c13.1 14.5 23.4 35.2 28 55.8 2.2 10.1 3.1 32.7 1.6 43.2 -3.1 21.6 -12.9 44.7 -26.5 62.3 -4.2 5.4 -6.2 8.7 -5.4 9 4.3 1.5 17.9 1.7 25.8 0.5z"/>
 </g>
</svg>